{"title":"Ice.Road.Truckers.S05E04.Fire.on.Ice.IARG","uid":6483865,"size":369543214,"categoryP":"video","categoryS":"tv_shows","magnet":"?xt=urn:btih:93e5255bde2a51e1e78b9c9af4c5c8a211437811&amp;dn=Ice.Road.Truckers.S05E04.Fire.on.Ice.IARG&amp;tr=udp%3A%2F%2Ftracker.openbittorrent.com%3A80&amp;tr=udp%3A%2F%2Fopen.demonii.com%3A1337&amp;tr=udp%3A%2F%2Ftracker.coppersurfer.tk%3A6969&amp;tr=udp%3A%2F%2Fexodus.desync.com%3A6969","seeders":0,"leechers":1,"uploader":"scoobey","files":2,"time":1308638100,"description":"Ice.Road.Truckers.S05E04.Fire.on.Ice.IARG.\n\n\n\nLanguage                      :English\nFormat                           : AVI\nFormat/Info                      : Audio Video Interleave\nFile size                        : 352 MiB\nDuration                         : 44mn 6s\nOverall bit rate                 : 1 117 Kbps\nWriting application              : VirtualDubMod 1.5.4.1 (build 2178/release)\nWriting library                  : VirtualDubMod build 2178/release\n\nVideo\nID                               : 0\nFormat                           : MPEG-4 Visual\nFormat profile                   : Advanced Simple@L5\nFormat settings, BVOP            : 1\nFormat settings, QPel            : No\nFormat settings, GMC             : No warppoints\nFormat settings, Matrix          : Custom\nCodec ID                         : XVID\nCodec ID/Hint                    : XviD\nDuration                         : 44mn 6s\nBit rate                         : 990 Kbps\nWidth                            : 624 pixels\nHeight                           : 352 pixels\nDisplay aspect ratio             : 16:9\nFrame rate                       : 29.970 fps\nColor space                      : YUV\nChroma subsampling               : 4:2:0\nBit depth                        : 8 bits\nScan type                        : Progressive\nCompression mode                 : Lossy\nBits/(Pixel*Frame)               : 0.150\nStream size                      : 312 MiB (89%)\nWriting library                  : XviD 64\n\nAudio\nID                               : 1\nFormat                           : MPEG Audio\nFormat version                   : Version 1\nFormat profile                   : Layer 3\nMode                             : Joint stereo\nCodec ID                         : 55\nCodec ID/Hint                    : MP3\nDuration                         : 44mn 5s\nBit rate mode                    : Variable\nBit rate                         : 113 Kbps\nNominal bit rate                 : 128 Kbps\nChannel(s)                       : 2 channels\nSampling rate                    : 48.0 KHz\nCompression mode                 : Lossy\nStream size                      : 35.7 MiB (10%)\nAlignment                        : Aligned on interleaves\nInterleave, duration             : 24 ms (0.72 video frame)\nInterleave, preload duration     : 562 ms\nWriting library                  : LAME3.98r\nEncoding settings                : -m j -V 4 -q 2 -lowpass 17 --abr 128\n\n\n","torrent":{"xt":"urn:btih:93e5255bde2a51e1e78b9c9af4c5c8a211437811","amp;dn":"Ice.Road.Truckers.S05E04.Fire.on.Ice.IARG","amp;tr":["udp%3A%2F%2Ftracker.openbittorrent.com%3A80","udp%3A%2F%2Fopen.demonii.com%3A1337","udp%3A%2F%2Ftracker.coppersurfer.tk%3A6969","udp%3A%2F%2Fexodus.desync.com%3A6969"],"infoHash":"93e5255bde2a51e1e78b9c9af4c5c8a211437811","infoHashBuffer":{"type":"Buffer","data":[147,229,37,91,222,42,81,225,231,139,156,154,244,197,200,162,17,67,120,17]},"announce":[],"urlList":[]}}